<?xml version="1.0" encoding="utf-8"?><svg version="1.1" id="Layer_1" xmlns="http://www.w3.org/2000/svg" xmlns:xlink="http://www.w3.org/1999/xlink" x="0px" y="0px" viewBox="0 0 122.88 100.24" style="enable-background:new 0 0 122.88 100.24" xml:space="preserve"><style type="text/css">.st0{fill-rule:evenodd;clip-rule:evenodd;} .st1{fill-rule:evenodd;clip-rule:evenodd;fill:#FFFFFF;} .st2{fill:#E74040;} .st3{fill-rule:evenodd;clip-rule:evenodd;fill:#E74040;}</style><g><path class="st0" d="M2.08,13.44h44.31c-0.04,0.36-0.08,0.72-0.1,1.09c-0.45,8.47,6.04,15.71,14.51,16.15 c8.48,0.45,15.71-6.04,16.15-14.52c0.05-0.92,0.02-1.84-0.09-2.72h43.93h2.08v2.08v69.2v2.08l-2.08,0H77.57v8.29h7.28v5.15H37.88 v-5.15h7.28V86.8H2.08H0v-2.08v-69.2v-2.08H2.08L2.08,13.44L2.08,13.44L2.08,13.44L2.08,13.44z"/><polygon class="st1" points="118.73,17.59 82.36,17.59 82.36,17.6 34.1,17.6 34.1,17.59 4.15,17.59 4.15,82.64 118.72,82.64 118.73,17.59 118.73,17.59 118.73,17.59 118.73,17.59"/><polygon class="st2" points="18.69,37.93 26.63,37.93 26.63,57.34 39.07,57.34 39.07,63.67 18.69,63.67 18.69,37.93"/><polygon class="st2" points="42.28,37.93 50.26,37.93 50.26,63.67 42.28,63.67 42.28,37.93"/><polygon class="st2" points="52.69,37.93 61.03,37.93 66.82,56.44 72.53,37.93 80.59,37.93 71.06,63.67 62.43,63.67 52.69,37.93"/><polygon class="st2" points="82.5,37.93 103.82,37.93 103.82,43.43 90.44,43.43 90.44,47.53 102.85,47.53 102.85,52.77 90.44,52.77 90.44,57.84 104.18,57.84 104.18,63.67 82.5,63.67 82.5,37.93"/><path class="st1" d="M62.45,0.02c8.47,0.44,14.96,7.68,14.51,16.15c-0.45,8.48-7.68,14.97-16.15,14.52 c-8.47-0.45-14.96-7.68-14.51-16.15C46.75,6.08,53.97-0.43,62.45,0.02L62.45,0.02L62.45,0.02z"/><path class="st3" d="M62.19,4.98c5.83,0.31,10.31,5.29,9.99,11.12c-0.31,5.84-5.29,10.31-11.12,10 c-5.83-0.31-10.31-5.29-9.99-11.12C51.38,9.15,56.36,4.67,62.19,4.98L62.19,4.98L62.19,4.98z M61.85,11.43 c2.27,0.12,4.01,2.06,3.89,4.32c-0.12,2.27-2.06,4.01-4.32,3.89c-2.27-0.12-4.01-2.06-3.89-4.32 C57.64,13.06,59.58,11.31,61.85,11.43L61.85,11.43L61.85,11.43z M61.97,8.92c1.83,0.1,3.44,0.92,4.58,2.18 c1.14,1.26,1.78,2.95,1.69,4.78c-0.1,1.83-0.92,3.44-2.19,4.58c-1.26,1.13-2.95,1.79-4.78,1.69c-1.83-0.1-3.46-0.92-4.58-2.18 c-1.14-1.26-1.78-2.95-1.69-4.78c0.1-1.83,0.92-3.46,2.18-4.58C58.46,9.48,60.15,8.82,61.97,8.92L61.97,8.92L61.97,8.92z"/></g></svg>